<?xml version="1.0" standalone="no"?>
<!DOCTYPE svg PUBLIC "-//W3C//DTD SVG 20010904//EN"
 "http://www.w3.org/TR/2001/REC-SVG-20010904/DTD/svg10.dtd">
<svg version="1.0" xmlns="http://www.w3.org/2000/svg"
 width="260.000000pt" height="260.000000pt" viewBox="0 0 260.000000 260.000000"
 preserveAspectRatio="xMidYMid meet">
<metadata>
Created by potrace 1.11, written by Peter Selinger 2001-2013
</metadata>
<g transform="translate(0.000000,260.000000) scale(0.100000,-0.100000)"
fill="#000000" stroke="none">
<path d="M361 2584 c-166 -44 -301 -180 -346 -347 -11 -43 -14 -209 -14 -938
-1 -975 -3 -929 61 -1051 60 -114 197 -213 327 -238 35 -7 367 -10 921 -10
837 0 869 1 939 21 167 46 291 174 335 346 14 54 16 166 16 930 -1 511 -5 888
-11 918 -33 170 -178 323 -350 369 -80 22 -1798 22 -1878 0z"/>
</g>
</svg>
